<?xml version="1.0" encoding="utf-8"?>
<!-- Generator: Adobe Illustrator 18.1.1, SVG Export Plug-In . SVG Version: 6.00 Build 0)  -->
<svg version="1.1" id="Слой_3" xmlns="http://www.w3.org/2000/svg" xmlns:xlink="http://www.w3.org/1999/xlink" x="0px" y="0px"
	 viewBox="0 0 82 82" enable-background="new 0 0 82 82" xml:space="preserve">
<g>
	<path fill="#FFFFFF" d="M1,41c0-11.1,3.9-20.5,11.7-28.3C20.5,4.9,29.9,1,41,1c11.1,0,20.5,3.9,28.3,11.7C77.1,20.5,81,29.9,81,41
		s-3.9,20.5-11.7,28.3C61.5,77.1,52.1,81,41,81c-11.1,0-20.5-3.9-28.3-11.7C4.9,61.5,1,52.1,1,41z M36.8,66h10.1v-51l-17,1.5
		l0.2,5.1h6.7V66z"/>
</g>
</svg>
