<?xml version="1.0" encoding="utf-8"?>
<!-- Generator: Adobe Illustrator 18.1.1, SVG Export Plug-In . SVG Version: 6.00 Build 0)  -->
<svg version="1.1" id="Слой_3" xmlns="http://www.w3.org/2000/svg" xmlns:xlink="http://www.w3.org/1999/xlink" x="0px" y="0px"
	 viewBox="0 0 82 82" enable-background="new 0 0 82 82" xml:space="preserve">
<g>
	<path fill="#FFFFFF" d="M1,41c0-11.1,3.9-20.5,11.7-28.3C20.5,4.9,29.9,1,41,1c11.1,0,20.5,3.9,28.3,11.7C77.1,20.5,81,29.9,81,41
		c0,11.1-3.9,20.5-11.7,28.3C61.5,77.1,52.1,81,41,81c-11.1,0-20.5-3.9-28.3-11.7C4.9,61.5,1,52.1,1,41z M25.2,65.6h33.7v-7.9H36.6
		c0.9-3.3,3.7-6.9,8.4-10.6l3.4-2.7c7.1-5.7,10.6-11.1,10.6-16.4c0-4.3-1.6-7.6-4.8-10.2C51,15.2,46.7,14,41.4,14
		c-2.4,0-4.8,0.2-7.3,0.7c-2.5,0.5-5,1.2-7.6,2.2v7.4c4.9-2.5,9.2-3.7,12.8-3.7c6,0,9,2.6,9,7.9c0,4.5-3.4,9.8-10.2,15.8L34,47.8
		c-2.9,2.6-5.8,5.9-8.8,9.9V65.6z"/>
</g>
</svg>
