<?xml version="1.0" encoding="utf-8"?>
<!-- Generator: Adobe Illustrator 18.1.1, SVG Export Plug-In . SVG Version: 6.00 Build 0)  -->
<svg version="1.1" id="Слой_3" xmlns="http://www.w3.org/2000/svg" xmlns:xlink="http://www.w3.org/1999/xlink" x="0px" y="0px"
	 viewBox="0 0 82 82" enable-background="new 0 0 82 82" xml:space="preserve">
<g>
	<path fill="#FFFFFF" d="M1,41c0-11.1,3.9-20.5,11.7-28.3C20.5,4.9,29.9,1,41,1c11.1,0,20.5,3.9,28.3,11.7C77.1,20.5,81,29.9,81,41
		c0,11.1-3.9,20.5-11.7,28.3C61.5,77.1,52.1,81,41,81c-11.1,0-20.5-3.9-28.3-11.7C4.9,61.5,1,52.1,1,41z M27.2,65.9
		c2.2,0.5,4.4,1,6.7,1.2c2.3,0.3,4.6,0.4,7.1,0.4c6,0,10.7-1.3,14.1-3.9c3.4-2.6,5.1-6.2,5.1-10.8c0-7.1-4.2-11.7-12.7-13.6
		c7.4-2.4,11.1-6.6,11.1-12.6c0-4-1.4-7-4.1-9c-2.8-2-6.9-3-12.4-3c-2.5,0-4.9,0.2-7.2,0.6c-2.3,0.4-4.6,0.9-6.8,1.7v6.9
		c4.2-1.9,8.1-2.9,11.8-2.9c5.7,0,8.5,2.3,8.5,6.8c0,3.3-1.2,5.7-3.6,7c-2.4,1.3-6.6,2-12.7,2v6.1c6.6,0,11.2,0.7,13.8,2.2
		c2.6,1.5,3.9,4,3.9,7.8c0,2.6-0.9,4.6-2.7,6.2c-1.8,1.5-4.2,2.3-7.2,2.3c-3.3,0-7.4-1-12.4-2.9V65.9z"/>
</g>
</svg>
